<svg width="32" height="32" viewBox="0 0 32 32" fill="none" xmlns="http://www.w3.org/2000/svg">
<path d="M24.5 17.5C24.5 17.8956 24.3827 18.2822 24.1629 18.6111C23.9432 18.94 23.6308 19.1964 23.2654 19.3478C22.8999 19.4991 22.4978 19.5387 22.1098 19.4616C21.7219 19.3844 21.3655 19.1939 21.0858 18.9142C20.8061 18.6345 20.6156 18.2781 20.5384 17.8902C20.4613 17.5022 20.5009 17.1001 20.6522 16.7346C20.8036 16.3692 21.06 16.0568 21.3889 15.8371C21.7178 15.6173 22.1044 15.5 22.5 15.5C23.0304 15.5 23.5391 15.7107 23.9142 16.0858C24.2893 16.4609 24.5 16.9696 24.5 17.5ZM29.5 13.5V23.5C29.5 24.5609 29.0786 25.5783 28.3284 26.3284C27.5783 27.0786 26.5609 27.5 25.5 27.5H7.5C6.43913 27.5 5.42172 27.0786 4.67157 26.3284C3.92143 25.5783 3.5 24.5609 3.5 23.5V8.615C3.48461 8.08012 3.57671 7.54758 3.77083 7.04893C3.96495 6.55027 4.25715 6.09564 4.63012 5.71194C5.0031 5.32823 5.44927 5.02327 5.94223 4.8151C6.43518 4.60693 6.96489 4.49978 7.5 4.5H24C24.3978 4.5 24.7794 4.65804 25.0607 4.93934C25.342 5.22064 25.5 5.60218 25.5 6C25.5 6.39783 25.342 6.77936 25.0607 7.06066C24.7794 7.34197 24.3978 7.5 24 7.5H7.5C7.3659 7.49993 7.23315 7.52683 7.10966 7.57911C6.98616 7.63138 6.87444 7.70796 6.78115 7.80429C6.68785 7.90062 6.61488 8.01473 6.56658 8.13983C6.51828 8.26493 6.49564 8.39847 6.5 8.5325V8.5425C6.521 8.80727 6.64251 9.05398 6.83961 9.23202C7.03671 9.41006 7.29446 9.50594 7.56 9.5H25.5C26.5609 9.5 27.5783 9.92143 28.3284 10.6716C29.0786 11.4217 29.5 12.4391 29.5 13.5ZM26.5 13.5C26.5 13.2348 26.3946 12.9804 26.2071 12.7929C26.0196 12.6054 25.7652 12.5 25.5 12.5H7.56C7.20237 12.5002 6.84617 12.4548 6.5 12.365V23.5C6.5 23.7652 6.60536 24.0196 6.79289 24.2071C6.98043 24.3946 7.23478 24.5 7.5 24.5H25.5C25.7652 24.5 26.0196 24.3946 26.2071 24.2071C26.3946 24.0196 26.5 23.7652 26.5 23.5V13.5Z" fill="#F7F7F6"/>
</svg>
