<svg width="32" height="32" viewBox="0 0 32 32" fill="none" xmlns="http://www.w3.org/2000/svg">
<path d="M16.5 17V25C16.5 25.3978 16.342 25.7794 16.0607 26.0607C15.7794 26.342 15.3978 26.5 15 26.5C14.6022 26.5 14.2207 26.342 13.9393 26.0607C13.658 25.7794 13.5 25.3978 13.5 25V20.625L6.06126 28.0613C5.92173 28.2008 5.75608 28.3115 5.57378 28.387C5.39147 28.4625 5.19608 28.5014 4.99876 28.5014C4.80143 28.5014 4.60604 28.4625 4.42374 28.387C4.24143 28.3115 4.07579 28.2008 3.93626 28.0613C3.79673 27.9217 3.68605 27.7561 3.61053 27.5738C3.53502 27.3915 3.49615 27.1961 3.49615 26.9988C3.49615 26.8014 3.53502 26.606 3.61053 26.4237C3.68605 26.2414 3.79673 26.0758 3.93626 25.9363L11.375 18.5H7.00001C6.60218 18.5 6.22065 18.342 5.93935 18.0607C5.65804 17.7794 5.50001 17.3978 5.50001 17C5.50001 16.6022 5.65804 16.2206 5.93935 15.9393C6.22065 15.658 6.60218 15.5 7.00001 15.5H15C15.3978 15.5 15.7794 15.658 16.0607 15.9393C16.342 16.2206 16.5 16.6022 16.5 17ZM26 3.5H10C9.33697 3.5 8.70108 3.76339 8.23224 4.23223C7.7634 4.70107 7.50001 5.33696 7.50001 6V11.5C7.50001 11.8978 7.65804 12.2794 7.93935 12.5607C8.22065 12.842 8.60218 13 9.00001 13C9.39783 13 9.77936 12.842 10.0607 12.5607C10.342 12.2794 10.5 11.8978 10.5 11.5V6.5H25.5V21.5H20.5C20.1022 21.5 19.7207 21.658 19.4393 21.9393C19.158 22.2206 19 22.6022 19 23C19 23.3978 19.158 23.7794 19.4393 24.0607C19.7207 24.342 20.1022 24.5 20.5 24.5H26C26.663 24.5 27.2989 24.2366 27.7678 23.7678C28.2366 23.2989 28.5 22.663 28.5 22V6C28.5 5.33696 28.2366 4.70107 27.7678 4.23223C27.2989 3.76339 26.663 3.5 26 3.5Z" fill="#009721"/>
</svg>
