<svg width="32" height="32" viewBox="0 0 32 32" fill="none" xmlns="http://www.w3.org/2000/svg">
<path d="M16 21.5C17.8789 21.5 19.7156 20.9428 21.2779 19.899C22.8402 18.8551 24.0578 17.3714 24.7768 15.6355C25.4959 13.8996 25.684 11.9895 25.3174 10.1466C24.9509 8.30382 24.0461 6.61108 22.7175 5.28248C21.3889 3.95388 19.6961 3.04909 17.8533 2.68253C16.0105 2.31597 14.1004 2.5041 12.3645 3.22314C10.6286 3.94217 9.14488 5.15981 8.101 6.72208C7.05713 8.28434 6.49996 10.1211 6.49996 12C6.50261 14.5187 7.50435 16.9336 9.28537 18.7146C11.0664 20.4956 13.4812 21.4973 16 21.5ZM16 5.49999C17.2855 5.49999 18.5423 5.88121 19.6112 6.59544C20.6801 7.30967 21.5132 8.32483 22.0052 9.51255C22.4972 10.7003 22.6259 12.0072 22.3751 13.2681C22.1243 14.529 21.5052 15.6871 20.5962 16.5962C19.6871 17.5052 18.5289 18.1243 17.2681 18.3751C16.0072 18.6259 14.7002 18.4972 13.5125 18.0052C12.3248 17.5132 11.3096 16.6801 10.5954 15.6112C9.88118 14.5423 9.49996 13.2856 9.49996 12C9.50195 10.2767 10.1874 8.62455 11.406 7.40599C12.6245 6.18743 14.2767 5.50198 16 5.49999ZM17.5 26.4225V27.5H20C20.3978 27.5 20.7793 27.658 21.0606 27.9393C21.3419 28.2206 21.5 28.6022 21.5 29C21.5 29.3978 21.3419 29.7793 21.0606 30.0607C20.7793 30.342 20.3978 30.5 20 30.5H12C11.6021 30.5 11.2206 30.342 10.9393 30.0607C10.658 29.7793 10.5 29.3978 10.5 29C10.5 28.6022 10.658 28.2206 10.9393 27.9393C11.2206 27.658 11.6021 27.5 12 27.5H14.5V26.4225C10.9571 26.0542 7.67375 24.3947 5.27611 21.7605C2.87847 19.1263 1.5343 15.7018 1.49996 12.14C1.45393 8.34821 2.90413 4.69105 5.53621 1.96124C5.67175 1.81561 5.83491 1.69839 6.01618 1.61641C6.19745 1.53444 6.39322 1.48934 6.59209 1.48375C6.79096 1.47815 6.98895 1.51218 7.17455 1.58384C7.36014 1.6555 7.52962 1.76336 7.67313 1.90115C7.81664 2.03894 7.93131 2.20389 8.01045 2.38642C8.0896 2.56895 8.13164 2.7654 8.13414 2.96433C8.13664 3.16326 8.09953 3.3607 8.025 3.54516C7.95046 3.72961 7.83997 3.8974 7.69996 4.03874C5.60977 6.20859 4.45458 9.11205 4.48281 12.1247C4.51103 15.1374 5.72041 18.0187 7.85089 20.1491C9.98136 22.2794 12.8628 23.4885 15.8755 23.5165C18.8882 23.5445 21.7915 22.3891 23.9612 20.2987C24.1026 20.1587 24.2703 20.0483 24.4548 19.9737C24.6393 19.8992 24.8367 19.8621 25.0356 19.8646C25.2346 19.8671 25.431 19.9091 25.6135 19.9883C25.7961 20.0674 25.961 20.1821 26.0988 20.3256C26.2366 20.4691 26.3445 20.6386 26.4161 20.8242C26.4878 21.0098 26.5218 21.2077 26.5162 21.4066C26.5106 21.6055 26.4655 21.8013 26.3835 21.9825C26.3016 22.1638 26.1844 22.327 26.0387 22.4625C23.7168 24.7023 20.7096 26.097 17.5 26.4225Z" fill="#F0F0F0"/>
</svg>
